<svg width="592" height="592" viewBox="0 0 592 592" fill="none" xmlns="http://www.w3.org/2000/svg">
<path d="M298.03 187.193C297.612 189.327 297.403 190.395 297.069 190.626L296.937 190.703C296.661 190.837 296.339 190.837 296.064 190.703L295.931 190.626C295.597 190.395 295.387 189.327 294.969 187.193L296.5 186.894L298.03 187.193ZM295.931 44.3741C296.273 44.137 296.727 44.137 297.069 44.3741C297.403 44.6053 297.613 45.673 298.031 47.8067L309.127 104.39C309.198 104.753 309.234 104.935 309.32 105.082C309.41 105.235 309.54 105.363 309.695 105.449C309.844 105.532 310.027 105.564 310.393 105.627L370.117 115.963C372.514 116.378 373.714 116.586 373.952 116.923C374.197 117.269 374.197 117.731 373.952 118.077L373.896 118.14C373.558 118.442 372.364 118.648 370.117 119.037L310.393 129.373L309.963 129.454C309.853 129.48 309.77 129.509 309.695 129.551C309.54 129.638 309.41 129.765 309.32 129.918C309.234 130.065 309.198 130.247 309.127 130.61L298.03 187.193L296.5 186.894L294.969 187.193L294.846 186.569L283.873 130.61C283.802 130.247 283.766 130.065 283.68 129.918C283.59 129.765 283.46 129.638 283.305 129.551C283.23 129.509 283.147 129.48 283.037 129.454L282.607 129.373L222.883 119.037C220.486 118.622 219.287 118.415 219.048 118.077C218.803 117.731 218.803 117.269 219.048 116.923C219.246 116.643 220.103 116.453 221.756 116.16L222.883 115.963L282.607 105.627C282.882 105.58 283.053 105.55 283.185 105.503L283.305 105.449C283.421 105.384 283.523 105.297 283.605 105.192L283.68 105.082C283.723 105.009 283.753 104.927 283.781 104.817L283.873 104.39L294.846 48.4307L294.969 47.8067C295.387 45.673 295.597 44.6053 295.931 44.3741ZM293.686 106.315C293.673 106.377 293.581 106.87 293.455 107.352C293.3 107.943 292.983 108.988 292.301 110.149C291.31 111.836 289.886 113.228 288.178 114.182C287.002 114.838 285.949 115.132 285.355 115.274C284.871 115.389 284.377 115.47 284.314 115.481L272.644 117.5L284.314 119.52C284.377 119.531 284.871 119.612 285.355 119.727C285.875 119.851 286.746 120.091 287.743 120.589L288.178 120.818L288.494 121.002C289.958 121.884 291.196 123.095 292.11 124.538L292.301 124.852L292.54 125.28C293.06 126.266 293.32 127.131 293.455 127.649C293.581 128.13 293.673 128.623 293.686 128.686L296.5 143.036L299.315 128.686C299.327 128.623 299.419 128.13 299.545 127.649C299.7 127.057 300.018 126.012 300.699 124.852L300.89 124.538C301.869 122.992 303.22 121.712 304.822 120.818C305.998 120.162 307.051 119.868 307.646 119.727C308.129 119.612 308.623 119.531 308.687 119.52L320.356 117.5L308.687 115.481C308.623 115.47 308.129 115.389 307.646 115.274C307.051 115.132 305.998 114.838 304.822 114.182C303.114 113.228 301.691 111.836 300.699 110.149C300.018 108.988 299.7 107.943 299.545 107.352C299.419 106.87 299.327 106.377 299.315 106.315L296.5 91.963L293.686 106.315Z" fill="#00E0FF"/>
<path d="M183 374.5H173C173 311.415 220.301 259.377 281.371 251.917L280.443 262.127C225.363 269.927 183 317.266 183 374.5Z" fill="#00E0FF"/>
<path d="M310 261.795V251.729C371.856 258.454 420 310.855 420 374.5H410C410 316.384 366.321 268.469 310 261.795Z" fill="#00E0FF"/>
<path d="M197 375V412H160V375H197ZM170 402H187V385H170V402Z" fill="#00E0FF"/>
<path d="M434 375V412H397V375H434ZM407 402H424V385H407V402Z" fill="#00E0FF"/>
<path d="M315 237V274H278V237H315ZM288 264H305V247H288V264Z" fill="#00E0FF"/>
<path d="M187 262V252H278V262H187Z" fill="#00E0FF"/>
<path d="M315 262V252H406V262H315Z" fill="#00E0FF"/>
<path d="M429 255.5C429 250.806 425.194 247 420.5 247C415.806 247 412 250.806 412 255.5C412 260.194 415.806 264 420.5 264V274C410.283 274 402 265.717 402 255.5C402 245.283 410.283 237 420.5 237C430.717 237 439 245.283 439 255.5C439 265.717 430.717 274 420.5 274V264C425.194 264 429 260.194 429 255.5Z" fill="#00E0FF"/>
<path d="M181 255.5C181 250.806 177.194 247 172.5 247C167.806 247 164 250.806 164 255.5C164 260.194 167.806 264 172.5 264V274C162.283 274 154 265.717 154 255.5C154 245.283 162.283 237 172.5 237C182.717 237 191 245.283 191 255.5C191 265.717 182.717 274 172.5 274V264C177.194 264 181 260.194 181 255.5Z" fill="#00E0FF"/>
<path d="M267.894 473.5H257.888C256.932 447.334 249.851 421.726 237.177 398.75L296.5 296L355.823 398.75L355.186 399.976C343.401 422.893 336.622 448.02 335.258 473.692L325.266 473.267C326.621 447.513 333.142 422.276 344.458 399.067L296.5 316L248.605 398.954C260.415 422.092 266.999 447.541 267.894 473.5Z" fill="#00E0FF"/>
<path d="M296.5 537.5V547.5H278V537.5H296.5Z" fill="#00E0FF"/>
<path d="M278 537.5V547.5C266.954 547.5 258 538.546 258 527.5V496.794L268 496.912V527.5C268 533.023 272.477 537.5 278 537.5Z" fill="#00E0FF"/>
<path d="M325 527.5V498.5H335V527.5L334.994 528.017C334.72 538.824 325.873 547.499 315 547.499L315 547.5H296.5V537.5H315C320.523 537.5 325 533.023 325 527.5Z" fill="#00E0FF"/>
<path d="M248 492H345V479H248V492ZM355 501C355 501.518 354.607 501.944 354.103 501.995L354 502H239L238.897 501.995C238.427 501.947 238.053 501.573 238.005 501.103L238 501V470C238 469.448 238.448 469 239 469H354C354.552 469 355 469.448 355 470V501Z" fill="#00E0FF"/>
<path d="M304 394C304 389.582 300.418 386 296 386C291.582 386 288 389.582 288 394C288 398.418 291.582 402 296 402V412C286.059 412 278 403.941 278 394C278 384.059 286.059 376 296 376C305.941 376 314 384.059 314 394C314 403.941 305.941 412 296 412V402C300.418 402 304 398.418 304 394Z" fill="#00E0FF"/>
<path d="M291 311H301V385H291V311Z" fill="#00E0FF"/>
</svg>
