<svg width="671" height="671" viewBox="0 0 671 671" fill="none" xmlns="http://www.w3.org/2000/svg">
<path d="M445 336C445 275.801 396.199 227 336 227C275.801 227 227 275.801 227 336C227 396.199 275.801 445 336 445V455C270.278 455 217 401.722 217 336C217 270.278 270.278 217 336 217C401.722 217 455 270.278 455 336C455 401.722 401.722 455 336 455V445C396.199 445 445 396.199 445 336Z" fill="#00E0FF"/>
<path d="M157.486 300.368L147.21 300.85C152.175 274.015 162.72 249.138 177.596 227.468L184.406 235.25C171.483 254.656 162.187 276.685 157.486 300.368Z" fill="#00E0FF"/>
<path d="M300.578 157.445C276.652 162.165 254.41 171.573 234.85 184.674L227.217 177.768C249.012 162.756 274.061 152.131 301.092 147.166L300.578 157.445Z" fill="#00E0FF"/>
<path d="M436.897 184.505C417.377 171.478 395.196 162.124 371.343 157.429L370.846 147.154C397.851 152.105 422.88 162.706 444.663 177.686L436.897 184.505Z" fill="#00E0FF"/>
<path d="M514.428 299.943C509.65 276.166 500.237 254.064 487.173 234.622L494.289 227.302C509.215 248.995 519.796 273.909 524.778 300.788L514.428 299.943Z" fill="#00E0FF"/>
<path d="M494.326 444.645L487.635 436.688C500.473 417.391 509.727 395.504 514.444 371.978L524.76 371.308C519.775 398.128 509.214 422.99 494.326 444.645Z" fill="#00E0FF"/>
<path d="M371.726 514.495C395.545 509.754 417.689 500.364 437.171 487.312L444.717 494.277C422.979 509.237 398.006 519.834 371.061 524.806L371.726 514.495Z" fill="#00E0FF"/>
<path d="M235.159 487.532C254.57 500.476 276.61 509.789 300.307 514.501L301.054 524.827C274.082 519.868 249.083 509.271 227.324 494.305L235.159 487.532Z" fill="#00E0FF"/>
<path d="M184.553 436.97L177.689 444.667C162.795 423.011 152.23 398.147 147.242 371.323L157.51 371.75C162.236 395.478 171.575 417.543 184.553 436.97Z" fill="#00E0FF"/>
<path d="M368.558 570V580H303.443V570H368.558Z" fill="#00E0FF"/>
<path d="M371.429 519.954L381.527 518.526L378.541 570.573L378.501 571.065C377.981 575.956 373.964 579.748 369.052 579.988L368.558 580V570L371.429 519.954Z" fill="#00E0FF"/>
<path d="M290.433 517.823L300.568 519.909L303.443 570V580C298.308 580 294.037 576.119 293.499 571.065L293.459 570.573L290.433 517.823Z" fill="#00E0FF"/>
<path d="M303.442 92H368.557L369.052 92.0117C374.127 92.2594 378.246 96.3008 378.541 101.427L381.604 154.818L371.445 152.326L368.557 102H303.442L300.495 153.357L290.365 155.352L293.459 101.427C293.763 96.1354 298.142 92.0002 303.442 92Z" fill="#00E0FF"/>
<path d="M102 368.558H92V303.442H102V368.558Z" fill="#00E0FF"/>
<path d="M101.427 293.459L154.751 290.399L153.029 300.514L102 303.442H92C92.0001 298.308 95.8812 294.037 100.935 293.499L101.427 293.459Z" fill="#00E0FF"/>
<path d="M151.621 371.405L152.05 381.446L101.427 378.541L100.935 378.501C96.0442 377.98 92.2515 373.964 92.0117 369.052L92 368.558H102L151.621 371.405Z" fill="#00E0FF"/>
<path d="M515.714 290.311L570.573 293.459C575.865 293.763 580 298.142 580 303.442V368.558L579.988 369.052C579.741 374.127 575.699 378.247 570.573 378.541L516.996 381.615L519.454 371.458L570 368.558V303.442L517.661 300.439L515.714 290.311Z" fill="#00E0FF"/>
<path d="M193.559 524.485L186.488 531.556L140.444 485.512L147.515 478.441L193.559 524.485Z" fill="#00E0FF"/>
<path d="M231.07 491.044L239.904 496.565L200.213 531.949L199.836 532.269C196.01 535.359 190.488 535.201 186.845 531.897L186.488 531.556L193.559 524.485L231.07 491.044Z" fill="#00E0FF"/>
<path d="M175.188 432.372L180.627 441.298L147.515 478.441L140.444 485.512C136.814 481.881 136.538 476.117 139.731 472.163L140.051 471.787L175.188 432.372Z" fill="#00E0FF"/>
<path d="M485.512 140.444L531.556 186.488L531.897 186.845C535.311 190.61 535.366 196.38 531.949 200.213L494.272 242.477L488.499 233.925L524.485 193.559L478.441 147.515L440.254 181.558L432.357 175.202L471.787 140.051C475.744 136.524 481.765 136.697 485.512 140.444Z" fill="#00E0FF"/>
<path d="M147.515 193.559L140.444 186.488L186.487 140.444L193.558 147.515L147.515 193.559Z" fill="#00E0FF"/>
<path d="M239.986 175.508L230.829 180.741L193.558 147.515L186.487 140.444C190.118 136.814 195.882 136.538 199.836 139.731L200.212 140.051L239.986 175.508Z" fill="#00E0FF"/>
<path d="M147.515 193.559L181.789 232.005L176.49 241.088L140.05 200.213L139.73 199.836C136.641 196.01 136.799 190.488 140.103 186.845L140.444 186.488L147.515 193.559Z" fill="#00E0FF"/>
<path d="M531.555 485.512L485.512 531.556L485.154 531.897C481.39 535.311 475.62 535.366 471.787 531.949L431.714 496.225L441.416 491.477L478.441 524.485L524.484 478.441L490.562 440.388L496.189 431.674L531.949 471.787C535.476 475.744 535.303 481.765 531.555 485.512Z" fill="#00E0FF"/>
<path d="M416.125 341.875L365.812 367.5V357.5L404.406 338.906L404.094 339.531V337.969L404.406 338.594L365.812 320V310L416.125 335.625V341.875Z" fill="#00E0FF"/>
<path d="M352.229 286.25L326.447 382.031H318.01L343.791 286.25H352.229Z" fill="#00E0FF"/>
<path d="M254.094 341.875V335.625L304.406 310V320L265.812 338.594L266.125 337.969V339.531L265.812 338.906L304.406 357.5V367.5L254.094 341.875Z" fill="#00E0FF"/>
</svg>
