<svg width="670" height="670" viewBox="0 0 670 670" fill="none" xmlns="http://www.w3.org/2000/svg">
<path d="M351 493H417V503H351V493Z" fill="#00E0FF"/>
<path d="M417 493C488.245 493 546 435.245 546 364V306C546 234.755 488.245 177 417 177H253C181.755 177 124 234.755 124 306V364C124 430.343 174.081 484.988 238.5 492.194V502.253C169.131 495.062 114.912 436.854 114.012 365.797L114 364V306C114 229.232 176.232 167 253 167H417L418.797 167.012C494.736 167.974 556 229.832 556 306V364C556 440.168 494.736 502.026 418.797 502.988L417 503V493Z" fill="#00E0FF"/>
<path d="M400 399V409H218V399H400Z" fill="#00E0FF"/>
<path d="M456 251V261H218V251H456Z" fill="#00E0FF"/>
<path d="M432 325V335H218V325H432Z" fill="#00E0FF"/>
<path d="M239 492V546.021C253.784 536.682 271.619 524.59 289.505 514.632C310.736 502.811 333.647 493 355 493V503C336.353 503 315.347 511.689 294.37 523.368C273.229 535.139 253.725 548.945 236.582 559.282L229 563.854V492H239Z" fill="#00E0FF"/>
</svg>
