<svg width="648" height="648" viewBox="0 0 648 648" fill="none" xmlns="http://www.w3.org/2000/svg">
<path d="M554 324C554 196.975 451.025 94 324 94C196.975 94 94 196.975 94 324C94 451.025 196.975 554 324 554V564C191.452 564 84 456.548 84 324C84 191.452 191.452 84 324 84C456.548 84 564 191.452 564 324C564 456.548 456.548 564 324 564V554C451.025 554 554 451.025 554 324Z" fill="#00E0FF"/>
<path d="M471 324C471 242.814 405.186 177 324 177C242.814 177 177 242.814 177 324C177 405.186 242.814 471 324 471V481C237.291 481 167 410.709 167 324C167 237.291 237.291 167 324 167C410.709 167 481 237.291 481 324C481 410.709 410.709 481 324 481V471C405.186 471 471 405.186 471 324Z" fill="#00E0FF"/>
<path d="M379 324C379 293.624 354.376 269 324 269C293.624 269 269 293.624 269 324C269 354.376 293.624 379 324 379V389C288.101 389 259 359.899 259 324C259 288.101 288.101 259 324 259C359.899 259 389 288.101 389 324C389 359.899 359.899 389 324 389V379C354.376 379 379 354.376 379 324Z" fill="#00E0FF"/>
<path d="M648 319V324H437V319H648Z" fill="#00E0FF"/>
<path d="M214 319V324H0V319H214Z" fill="#00E0FF"/>
<path d="M329 648H324V434H329V648Z" fill="#00E0FF"/>
<path d="M329 214H324V0L329 2.18557e-07V214Z" fill="#00E0FF"/>
</svg>
