<svg width="705" height="705" viewBox="0 0 705 705" fill="none" xmlns="http://www.w3.org/2000/svg">
<path d="M320 636.282V646.341C181.96 631.713 72.2867 522.04 57.6592 384H67.718C82.2617 516.512 187.488 621.738 320 636.282Z" fill="#00E0FF"/>
<path d="M635.282 384H645.341C630.713 522.04 521.04 631.713 383 646.341V636.282C515.512 621.738 620.738 516.512 635.282 384Z" fill="#00E0FF"/>
<path d="M383 58.6592C521.04 73.2867 630.713 182.96 645.341 321H635.282C620.738 188.488 515.512 83.2617 383 68.718V58.6592Z" fill="#00E0FF"/>
<path d="M320 58.6592V68.718C187.488 83.2617 82.2617 188.488 67.718 321H57.6592C72.2867 182.96 181.96 73.2867 320 58.6592Z" fill="#00E0FF"/>
<path d="M76 353C76 346.373 70.6274 341 64 341C57.3726 341 52 346.373 52 353C52 359.627 57.3726 365 64 365V375C51.8497 375 42 365.15 42 353C42 340.85 51.8497 331 64 331C76.1503 331 86 340.85 86 353C86 365.15 76.1503 375 64 375V365C70.6274 365 76 359.627 76 353Z" fill="#00E0FF"/>
<path d="M363 642C363 635.373 357.627 630 351 630C344.373 630 339 635.373 339 642C339 648.627 344.373 654 351 654V664C338.85 664 329 654.15 329 642C329 629.85 338.85 620 351 620C363.15 620 373 629.85 373 642C373 654.15 363.15 664 351 664V654C357.627 654 363 648.627 363 642Z" fill="#00E0FF"/>
<path d="M363 63C363 56.3726 357.627 51 351 51C344.373 51 339 56.3726 339 63C339 69.6274 344.373 75 351 75V85C338.85 85 329 75.1503 329 63C329 50.8497 338.85 41 351 41C363.15 41 373 50.8497 373 63C373 75.1503 363.15 85 351 85V75C357.627 75 363 69.6274 363 63Z" fill="#00E0FF"/>
<path d="M652 353C652 346.373 646.627 341 640 341C633.373 341 628 346.373 628 353C628 359.627 633.373 365 640 365V375C627.85 375 618 365.15 618 353C618 340.85 627.85 331 640 331C652.15 331 662 340.85 662 353C662 365.15 652.15 375 640 375V365C646.627 365 652 359.627 652 353Z" fill="#00E0FF"/>
<path d="M481 505V515H224V505H481ZM528 458V248C528 222.043 506.957 201 481 201H224C198.043 201 177 222.043 177 248V458C177 483.957 198.043 505 224 505V515C192.52 515 167 489.48 167 458V248C167 216.766 192.123 191.399 223.264 191.005L224 191H481L481.736 191.005C512.877 191.399 538 216.766 538 248V458C538 489.48 512.48 515 481 515V505C506.957 505 528 483.957 528 458Z" fill="#00E0FF"/>
<path d="M209 224.5C209 224.226 208.901 223.908 208.566 223.588C208.225 223.261 207.692 223 207 223C206.308 223 205.775 223.261 205.434 223.588C205.099 223.908 205 224.226 205 224.5C205 224.774 205.099 225.092 205.434 225.412C205.775 225.739 206.308 226 207 226V236C200.373 236 195 230.851 195 224.5C195 218.149 200.373 213 207 213C213.627 213 219 218.149 219 224.5C219 230.851 213.627 236 207 236V226C207.692 226 208.225 225.739 208.566 225.412C208.901 225.092 209 224.774 209 224.5Z" fill="#00E0FF"/>
<path d="M237 224.5C237 223.672 236.328 223 235.5 223C234.672 223 234 223.672 234 224.5C234 225.328 234.672 226 235.5 226V236C229.149 236 224 230.851 224 224.5C224 218.149 229.149 213 235.5 213C241.851 213 247 218.149 247 224.5C247 230.851 241.851 236 235.5 236V226C236.328 226 237 225.328 237 224.5Z" fill="#00E0FF"/>
<path d="M265 224.5C265 223.672 264.328 223 263.5 223C262.672 223 262 223.672 262 224.5C262 225.328 262.672 226 263.5 226V236C257.149 236 252 230.851 252 224.5C252 218.149 257.149 213 263.5 213C269.851 213 275 218.149 275 224.5C275 230.851 269.851 236 263.5 236V226C264.328 226 265 225.328 265 224.5Z" fill="#00E0FF"/>
<path d="M533 241V251L175 251V241L533 241Z" fill="#00E0FF"/>
<path d="M331 281V404H206V281H331ZM216 394H321V291H216V394Z" fill="#00E0FF"/>
<path d="M328.091 394.157L321.048 401.255L209.027 290.096L216.07 282.998L328.091 394.157Z" fill="#00E0FF"/>
<path d="M214.59 404.24L207.518 397.169L319.109 285.578L326.181 292.649L214.59 404.24Z" fill="#00E0FF"/>
<path d="M501 280V290H379V280H501Z" fill="#00E0FF"/>
<path d="M478 315V325H379V315H478Z" fill="#00E0FF"/>
<path d="M456 350V360H379V350H456Z" fill="#00E0FF"/>
<path d="M464.5 472V482H316.5V472H464.5ZM482 454.5C482 444.835 474.165 437 464.5 437H316.5C306.835 437 299 444.835 299 454.5C299 464.165 306.835 472 316.5 472V482C301.312 482 289 469.688 289 454.5C289 439.55 300.93 427.385 315.79 427.009L316.5 427H464.5L465.21 427.009C480.07 427.385 492 439.55 492 454.5C492 469.688 479.688 482 464.5 482V472C474.165 472 482 464.165 482 454.5Z" fill="#00E0FF"/>
</svg>
