<svg width="527" height="527" viewBox="0 0 527 527" fill="none" xmlns="http://www.w3.org/2000/svg">
<path d="M504 263.5C504 130.676 396.324 23 263.5 23C130.676 23 23 130.676 23 263.5C23 396.324 130.676 504 263.5 504V527C117.973 527 0 409.027 0 263.5C0 117.973 117.973 0 263.5 0C409.027 0 527 117.973 527 263.5C527 409.027 409.027 527 263.5 527V504C396.324 504 504 396.324 504 263.5Z" fill="black"/>
<path d="M351 102H279L99 396.5H171L351 102Z" fill="#31D400"/>
<path d="M324 187.5L283.5 252.5L354.5 396.5H426.5L324 187.5Z" fill="#31D400"/>
</svg>
