<svg width="527" height="527" viewBox="0 0 527 527" fill="none" xmlns="http://www.w3.org/2000/svg">
<path d="M523 263.5C523 120.182 406.818 4 263.5 4C120.182 4 4 120.182 4 263.5C4 406.818 120.182 523 263.5 523V527C117.973 527 0 409.027 0 263.5C0 117.973 117.973 0 263.5 0C409.027 0 527 117.973 527 263.5C527 409.027 409.027 527 263.5 527V523C406.818 523 523 406.818 523 263.5Z" fill="black"/>
<path d="M351 102H279L99 396.5H171L351 102Z" fill="#31D400"/>
<path d="M324 187.5L283.5 252.5L354.5 396.5H426.5L324 187.5Z" fill="#31D400"/>
</svg>
